Coordinates
version=1
nRows=17
nColumns=27
inDegrees=yes

Units are S.I. units (second, meters, Newtons, ...)
If the header above contains a line with 'inDegrees', this indicates whether rotational values are in degrees (yes) or radians (no).

endheader
time	pelvis_rotation	pelvis_tilt	pelvis_list	pelvis_tx	pelvis_ty	pelvis_tz	hip_flexion_r	hip_adduction_r	hip_rotation_r	knee_angle_r	knee_rotation_r	knee_adduction_r	knee_angle_r_beta	ankle_angle_r	subtalar_angle_r	mtp_angle_r	hip_flexion_l	hip_adduction_l	hip_rotation_l	knee_angle_l	knee_rotation_l	knee_adduction_l	knee_angle_l_beta	ankle_angle_l	subtalar_angle_l	mtp_angle_l
      7.49000000	      6.81928194	    -47.64021323	      6.59204317	     -0.13421366	      0.79715151	     -1.21046727	     96.57842934	    -14.34814595	    -14.76583897	     62.09183373	     -6.97086085	      9.04190073	      1.08370694	     11.58076773	      0.03573564	      0.00000000	     94.18030654	     -6.12855327	    -17.80135025	     57.43271170	     -5.43115903	     -9.46454508	      1.00238992	      9.65491778	      5.30699504	      0.00000000
      7.49500000	      7.33751655	    -47.44012699	      6.64458015	     -0.13436478	      0.79364422	     -1.21042962	     96.92074011	    -14.76100743	    -14.95295607	     63.01190025	     -7.19053980	      9.07637185	      1.09976513	     11.90312570	     -0.19350669	      0.00000000	     94.67629430	     -5.67519946	    -17.37225569	     58.26115163	     -5.66461359	     -9.48352590	      1.01684892	      9.83554440	      5.01891587	      0.00000000
      7.50000000	      7.53294776	    -47.22667494	      6.99579205	     -0.13449152	      0.79003636	     -1.21029298	     97.43077091	    -14.84566279	    -14.40698727	     63.98380604	     -7.29947972	      9.07981590	      1.11672808	     12.23418883	     -0.41209102	      0.00000000	     95.02714240	     -5.54338104	    -17.69242206	     59.09486362	     -6.04979472	     -9.49960815	      1.03139994	     10.11945364	      5.07865597	      0.00000000
      7.50500000	      7.38777201	    -46.96963343	      6.92910317	     -0.13456466	      0.78663916	     -1.20990114	     97.72477740	    -14.64238301	    -14.12419097	     64.79223953	     -7.45469607	      9.08007197	      1.13083791	     12.41393501	     -0.81581925	      0.00000000	     95.30967516	     -5.67980264	    -17.77001731	     59.95107207	     -6.32453354	     -9.51659497	      1.04634360	     10.52922667	      5.03222583	      0.00000000
      7.51000000	      7.45556691	    -46.79390948	      6.92222861	     -0.13469824	      0.78322426	     -1.20961739	     98.08920291	    -14.62346434	    -13.93083497	     65.60872059	     -7.59230339	      9.08253501	      1.14508819	     12.65785959	     -1.10969674	      0.00000000	     95.72656266	     -5.63861078	    -17.72229008	     60.77989006	     -6.59518808	     -9.52260648	      1.06080920	     10.73949201	      4.95480418	      0.00000000
      7.51500000	      7.46406327	    -46.95022645	      6.91826693	     -0.13575560	      0.77876005	     -1.20901934	     98.98840539	    -14.49394553	    -12.88005051	     66.69434098	     -7.05816137	      8.45861598	      1.16403584	     12.94550399	     -1.33428209	      0.00000000	     96.64473467	     -5.79013999	    -17.05864951	     61.89931208	     -6.26299141	     -9.16314238	      1.08034680	     11.06118610	      4.82978360	      0.00000000
      7.52000000	      7.81561072	    -46.37147975	      6.90367555	     -0.13477006	      0.77657591	     -1.20919072	     98.67419581	    -14.83776944	    -13.78543350	     67.22719995	     -7.87266726	      9.08417295	      1.17333599	     13.18934156	     -1.59379883	      0.00000000	     96.45828054	     -5.32456847	    -17.37017702	     62.35708702	     -7.02806886	     -9.55070384	      1.08833648	     11.24990646	      4.65637384	      0.00000000
      7.52500000	      7.66474265	    -46.16057606	      6.84376890	     -0.13476770	      0.77332353	     -1.20876778	     98.96593352	    -14.62226665	    -13.49412339	     67.97285355	     -7.98107427	      9.07332222	      1.18635010	     13.40175923	     -1.93692912	      0.00000000	     96.74910585	     -5.48114333	    -17.44424311	     63.15223918	     -7.27173709	     -9.55963220	      1.10221450	     11.56234021	      4.67210718	      0.00000000
      7.53000000	      7.75431009	    -46.33256067	      6.84120251	     -0.13580770	      0.76893305	     -1.20825478	     99.84695630	    -14.58086080	    -12.50254587	     69.02459830	     -7.40989721	      8.45582365	      1.20470651	     13.66868645	     -2.06158681	      0.00000000	     97.67744700	     -5.54447426	    -16.64974727	     64.23013845	     -6.84287094	     -9.20542362	      1.12102740	     11.81094708	      4.44135323	      0.00000000
      7.53500000	      7.37563220	    -45.77954538	      6.18148109	     -0.13469127	      0.76707365	     -1.20785489	     99.30010525	    -14.27718029	    -13.61022521	     69.30315670	     -8.23854735	      9.06625745	      1.20956827	     13.78194941	     -2.61488201	      0.00000000	     97.47415663	     -5.74210341	    -16.84755615	     64.78135253	     -7.55047259	     -9.57603011	      1.13064790	     12.06053984	      4.46075689	      0.00000000
      7.54000000	      7.62179296	    -45.53167286	      6.67670315	     -0.13468748	      0.76384035	     -1.20783579	     99.73023299	    -14.40261769	    -12.97661555	     70.15586403	     -8.28922539	      9.04038896	      1.22445082	     14.05131056	     -2.73937192	      0.00000000	     97.64113429	     -5.55475444	    -17.21776924	     65.42395953	     -7.81294411	     -9.58294751	      1.14186350	     12.32928379	      4.36686188	      0.00000000
      7.54500000	      7.85023181	    -45.35864041	      6.74816471	     -0.13467382	      0.76068754	     -1.20772507	    100.04764394	    -14.56495041	    -12.87141953	     70.91266282	     -8.39351459	      9.03744217	      1.23765945	     14.28051708	     -2.94918481	      0.00000000	     97.98188763	     -5.34951440	    -17.04782891	     66.12556445	     -7.94734611	     -9.58765500	      1.15410882	     12.55307666	      4.17081926	      0.00000000
      7.55000000	      7.94604724	    -45.19242854	      6.70801340	     -0.13465069	      0.75760811	     -1.20754427	    100.32251248	    -14.61862216	    -12.76816721	     71.62530732	     -8.46150775	      9.04094335	      1.25009744	     14.50646848	     -3.17733226	      0.00000000	     98.31885498	     -5.25423684	    -16.87045091	     66.82925721	     -8.08267122	     -9.59315237	      1.16639058	     12.75719256	      3.98054030	      0.00000000
      7.55500000	      7.77518480	    -45.38469503	      6.63521694	     -0.13556443	      0.75329552	     -1.20689802	    101.19668201	    -14.32824670	    -11.71183877	     72.59596463	     -7.87693224	      8.40881735	      1.26703861	     14.64949350	     -3.28668307	      0.00000000	     99.19355197	     -5.55549671	    -16.18013462	     67.89573940	     -7.59666686	     -9.25814202	      1.18500420	     13.13276407	      3.79058525	      0.00000000
      7.56000000	      7.79171729	    -44.78734445	      6.59579297	     -0.13450732	      0.75157642	     -1.20690022	    100.78381829	    -14.36967717	    -12.38526283	     72.95442021	     -8.61208504	      9.02262964	      1.27329484	     14.86747599	     -3.72940589	      0.00000000	     98.82413231	     -5.43141050	    -16.76431793	     68.24878164	     -8.33179093	     -9.60604357	      1.19116595	     13.24513076	      3.78893845	      0.00000000
      7.56500000	      7.69460607	    -45.04061051	      6.52112867	     -0.13539167	      0.74733248	     -1.20631499	    101.68974759	    -14.16063489	    -11.38919207	     73.90319040	     -7.99257105	      8.39933047	      1.28985400	     15.09322397	     -3.77349445	      0.00000000	     99.75619762	     -5.67525605	    -15.97559549	     69.27441763	     -7.78441018	     -9.27960083	      1.20906667	     13.51232523	      3.63820378	      0.00000000
      7.57000000	      7.97202441	    -44.51506145	      6.59135157	     -0.13440547	      0.74566284	     -1.20659798	    101.36864328	    -14.47024900	    -12.13480243	     74.28894051	     -8.72406523	      9.01280348	      1.29658661	     15.26247992	     -4.14359754	      0.00000000	     99.47456343	     -5.26902722	    -16.47646406	     69.56872405	     -8.53519160	     -9.61259039	      1.21420329	     13.66454328	      3.47912637	      0.00000000
